<svg width="244" height="155" viewBox="0 0 244 155" fill="none" xmlns="http://www.w3.org/2000/svg">
<path d="M142 14C147.6 66.4 129 128.833 119 153.5" stroke="#1E1E1E" stroke-width="3"/>
<path d="M211.5 17.5C201.1 78.7 198.833 132.333 199 151.5" stroke="#1E1E1E" stroke-width="3"/>
<path d="M115 12.5C116 20.1667 112.4 39.4 90 55C62 74.5 22 84.5 13.5 75.5C6.69998 68.3 25 77.8333 35 83.5C43.8333 89.3333 67.4 101 91 101C114.6 101 202.167 85.3333 243 77.5" stroke="#1E1E1E" stroke-width="3"/>
<path d="M1.5 33.5C12.7 11.9 22.1667 3.83333 25.5 2.49999C28.5 1.16666 35.9 1.09999 41.5 11.5C47.1 21.9 18.8333 101.5 4 140" stroke="#1E1E1E" stroke-width="3"/>
</svg>
